<?xml version="1.0" encoding="utf-8"?>
<!-- Generator: Adobe Illustrator 22.0.1, SVG Export Plug-In . SVG Version: 6.00 Build 0)  -->
<svg version="1.1" id="Layer_1" xmlns="http://www.w3.org/2000/svg" xmlns:xlink="http://www.w3.org/1999/xlink" x="0px" y="0px"
	 viewBox="0 0 24 24" style="enable-background:new 0 0 24 24;" xml:space="preserve">
<style type="text/css">
	.st0{fill:#c10c0c;}
</style>
<path class="st0" d="M21,5h-4V4c0-1.7-1.3-3-3-3h-4C8.3,1,7,2.3,7,4v1H3C2.4,5,2,5.4,2,6s0.4,1,1,1h1v13c0,1.7,1.3,3,3,3h10
	c1.7,0,3-1.3,3-3V7h1c0.6,0,1-0.4,1-1S21.6,5,21,5z M9,4c0-0.6,0.4-1,1-1h4c0.6,0,1,0.4,1,1v1H9V4z M18,20c0,0.6-0.4,1-1,1H7
	c-0.6,0-1-0.4-1-1V7h12V20z"/>
<g>
	<path class="st0" d="M10,18c-0.6,0-1-0.4-1-1v-6c0-0.6,0.4-1,1-1s1,0.4,1,1v6C11,17.6,10.6,18,10,18z"/>
</g>
<g>
	<path class="st0" d="M14,18c-0.6,0-1-0.4-1-1v-6c0-0.6,0.4-1,1-1s1,0.4,1,1v6C15,17.6,14.6,18,14,18z"/>
</g>
</svg>
