<?xml version="1.0" encoding="UTF-8"?>
<svg width="85px" height="19px" viewBox="0 0 85 19" version="1.1" xmlns="http://www.w3.org/2000/svg" xmlns:xlink="http://www.w3.org/1999/xlink">
    <title>Feyverly</title>
    <g id="Page-1" stroke="none" stroke-width="1" fill="none" fill-rule="evenodd">
        <g id="Detail" transform="translate(-24.000000, -106.000000)" fill="#FFFFFF" fill-rule="nonzero">
            <g id="Group-4" transform="translate(0.000000, 88.000000)">
                <g id="Feyverly" transform="translate(24.000000, 18.300000)">
                    <path d="M25.384792,3.59079317 C25.4597007,3.59079317 25.5291904,3.62718134 25.5719949,3.68708732 L25.5886439,3.71416366 L29.7504786,11.6631546 L33.3567512,3.72571858 C33.3847485,3.66409339 33.4378263,3.61901044 33.5006892,3.60032054 L33.5328652,3.59322062 L33.5662473,3.59079317 L34.0417927,3.59079317 C34.1974073,3.59079317 34.3050285,3.7405587 34.2629902,3.88455529 L34.2525569,3.91323161 L29.1685243,15.5170893 C28.9447756,16.1184141 28.6438054,16.5893439 28.2634255,16.9266619 C27.8691433,17.2763084 27.362143,17.4502428 26.7534694,17.4502428 C26.6208316,17.4502428 26.4697818,17.4358571 26.2995385,17.4074832 C26.1273795,17.3787901 25.9812861,17.3422667 25.8602848,17.2968912 C25.7561351,17.2578351 25.6963298,17.1508912 25.713999,17.0441095 L25.7216571,17.0121478 L25.8405435,16.6356744 C25.8792422,16.5131286 26.0108145,16.446032 26.1327307,16.4866708 C26.2007626,16.5093481 26.3004731,16.5335203 26.4299582,16.5581842 C26.554697,16.5819439 26.6756989,16.593749 26.7930982,16.593749 C27.0353737,16.593749 27.2403772,16.5488167 27.4107883,16.4608626 C27.59036,16.3681804 27.7425265,16.2504667 27.8686633,16.1071294 C27.9993664,15.9586032 28.1096534,15.7887016 28.1996222,15.5967682 C28.2719996,15.442363 28.338914,15.2880402 28.4001254,15.1344623 L28.459427,14.9811572 L29.2961018,12.6986182 L24.7053781,3.92759669 C24.635216,3.79354059 24.7115309,3.63621747 24.8475503,3.59898131 L24.8775795,3.59289245 L24.9092467,3.59079317 L25.384792,3.59079317 Z M76.1126417,3.59079317 C76.1875503,3.59079317 76.25704,3.62718134 76.2998445,3.68708732 L76.3164935,3.71416366 L80.4783749,11.6631546 L84.0846008,3.72571858 C84.1125982,3.66409339 84.1656759,3.61901044 84.2285388,3.60032054 L84.2607149,3.59322062 L84.2940969,3.59079317 L84.7696423,3.59079317 C84.9252569,3.59079317 85.0328782,3.7405587 84.9908398,3.88455529 L84.9804066,3.91323161 L79.896374,15.5170893 C79.6726252,16.1184141 79.3716551,16.5893439 78.9912752,16.9266619 C78.5969929,17.2763084 78.0899926,17.4502428 77.481319,17.4502428 C77.3486813,17.4502428 77.1976314,17.4358571 77.0273881,17.4074832 C76.8552292,17.3787901 76.7091358,17.3422667 76.5881345,17.2968912 C76.4839848,17.2578351 76.4241794,17.1508912 76.4418487,17.0441095 L76.4495068,17.0121478 L76.5683931,16.6356744 C76.6070918,16.5131286 76.7386641,16.446032 76.8605803,16.4866708 C76.9286123,16.5093481 77.0283227,16.5335203 77.1578079,16.5581842 C77.2825467,16.5819439 77.4035486,16.593749 77.5209478,16.593749 C77.7632234,16.593749 77.9682268,16.5488167 78.138638,16.4608626 C78.3182096,16.3681804 78.4703762,16.2504667 78.596513,16.1071294 C78.7272161,15.9586032 78.8375031,15.7887016 78.9274718,15.5967682 C78.9998493,15.442363 79.0667636,15.2880402 79.1279751,15.1344623 L79.1872767,14.9811572 L80.0239981,12.6986182 L75.4332277,3.92759669 C75.3630656,3.79354059 75.4393806,3.63621747 75.5753999,3.59898131 L75.6054291,3.59289245 L75.6370963,3.59079317 L76.1126417,3.59079317 Z M53.7973828,3.59079317 C54.58861,3.59079317 55.2822187,3.72229354 55.876765,3.98718385 C56.4683518,4.25075557 56.9627707,4.59943811 57.3579927,5.03309248 C57.7520092,5.4654241 58.0461596,5.9578582 58.239481,6.50881872 C58.4136884,7.00530481 58.5088421,7.51112461 58.5247031,8.02549521 L58.5270823,8.18006213 L58.5270823,8.55653555 C58.5270823,8.67302774 58.4405164,8.76930136 58.3282029,8.78453799 L58.2969793,8.78663856 L49.8716063,8.78656019 L49.8759895,8.87408099 C49.8961966,9.19088569 49.9467247,9.50548891 50.0276363,9.8180769 L50.0706244,9.97420382 L50.1186781,10.13 C50.2856666,10.6437447 50.5389177,11.1031985 50.879084,11.5098489 C51.2166896,11.9134381 51.6445619,12.2401015 52.1648863,12.4903816 C52.6812341,12.738749 53.2951412,12.863928 54.0086315,12.863928 C54.7358655,12.863928 55.3778732,12.7290646 55.9370208,12.4605905 C56.4971627,12.191639 56.9841845,11.8005349 57.3995882,11.2852122 C57.4725446,11.1947074 57.5998614,11.1740601 57.6966712,11.2320041 L57.724714,11.2517537 L58.0627119,11.5291552 C58.161075,11.6098837 58.1752398,11.755121 58.0943287,11.853334 C57.5943263,12.4602556 57.0077097,12.923968 56.3358856,13.2425043 C55.6627751,13.5616504 54.8863307,13.7204218 54.0086315,13.7204218 C53.2610743,13.7204218 52.5763884,13.5926701 51.9561551,13.3364198 C51.3364568,13.0803906 50.8000193,12.7229737 50.3485641,12.2648155 C49.8963603,11.8058975 49.5482242,11.2570332 49.304674,10.6201654 C49.0620172,9.9856342 48.9409341,9.29732024 48.9409341,8.55653555 C48.9409341,7.8402214 49.0662603,7.17640008 49.3174,6.5667147 C49.5679622,5.95843115 49.9117574,5.43138681 50.3483572,4.98716664 C50.785799,4.54208979 51.3013422,4.19768257 51.8932884,3.95477166 C52.4847951,3.71204107 53.1200498,3.59079317 53.7973828,3.59079317 Z M16.8817441,3.59079317 C17.6729713,3.59079317 18.3665799,3.72229354 18.9611263,3.98718385 C19.552713,4.25075557 20.047132,4.59943811 20.442354,5.03309248 C20.8363705,5.4654241 21.1305208,5.9578582 21.3238423,6.50881872 C21.4980497,7.00530481 21.5932034,7.51112461 21.6090643,8.02549521 L21.6114436,8.18006213 L21.6114436,8.55653555 C21.6114436,8.67302774 21.5248776,8.76930136 21.4125642,8.78453799 L21.3813406,8.78663856 L12.9560268,8.78656019 L12.9603508,8.87408099 C12.9805579,9.19088569 13.0310859,9.50548891 13.1119976,9.8180769 L13.1549856,9.97420382 L13.2030393,10.13 C13.3700279,10.6437447 13.623279,11.1031985 13.9634453,11.5098489 C14.3010508,11.9134381 14.7289232,12.2401015 15.2492476,12.4903816 C15.7655954,12.738749 16.3795025,12.863928 17.0929927,12.863928 C17.8202268,12.863928 18.4622345,12.7290646 19.0213821,12.4605905 C19.581524,12.191639 20.0685458,11.8005349 20.4839495,11.2852122 C20.5569058,11.1947074 20.6842227,11.1740601 20.7810324,11.2320041 L20.8090753,11.2517537 L21.1470731,11.5291552 C21.2454362,11.6098837 21.2596011,11.755121 21.1786899,11.853334 C20.6786875,12.4602556 20.092071,12.923968 19.4202468,13.2425043 C18.7471363,13.5616504 17.970692,13.7204218 17.0929927,13.7204218 C16.3454356,13.7204218 15.6607497,13.5926701 15.0405164,13.3364198 C14.4208181,13.0803906 13.8843806,12.7229737 13.4329254,12.2648155 C12.9807216,11.8058975 12.6325855,11.2570332 12.3890352,10.6201654 C12.1463785,9.9856342 12.0252953,9.29732024 12.0252953,8.55653555 C12.0252953,7.8402214 12.1506216,7.17640008 12.4017612,6.5667147 C12.6523235,5.95843115 12.9961186,5.43138681 13.4327184,4.98716664 C13.8701603,4.54208979 14.3857035,4.19768257 14.9776497,3.95477166 C15.5691564,3.71204107 16.2044111,3.59079317 16.8817441,3.59079317 Z M67.1747075,3.29976944 C67.2437201,3.29976944 67.3180369,3.30802687 67.398164,3.32405228 C67.4949641,3.34341231 67.5673546,3.42184284 67.5808647,3.51729624 L67.5831401,3.54968685 L67.5831401,3.92616027 C67.5831401,4.07585865 67.4424576,4.18570017 67.2972289,4.14939298 C67.2737129,4.14351398 67.2521222,4.13972072 67.2324647,4.1378451 L67.2044291,4.13644889 L67.09545,4.13644889 C66.5012387,4.13644889 65.7981744,4.28724919 65.4581716,4.50112192 C65.0777326,4.74043031 64.7653433,5.05281957 64.519375,5.44021976 C64.2687354,5.83497705 64.0836157,6.27424415 63.9639969,6.75901527 C63.8563631,7.19521507 63.7966424,7.62828719 63.7846999,8.05849622 L63.7824608,8.21969091 L63.7824608,13.2129174 C63.7824608,13.3294095 63.6958949,13.4256832 63.5835814,13.4409198 L63.5523578,13.4430204 L63.1164412,13.4430204 C62.999949,13.4430204 62.9036754,13.3564544 62.8884388,13.244141 L62.8863382,13.2129174 L62.8863382,6.1193655 C62.8863382,6.02426341 62.8848895,5.91433288 62.8819863,5.78961526 L62.8568161,4.94998856 L62.839577,4.53393345 L62.7981859,3.94772175 L62.7882787,3.84245766 C62.7765499,3.71783974 62.8661354,3.60884965 62.9866398,3.59281933 L63.0173693,3.59079317 L63.4532859,3.59079317 C63.561864,3.59079317 63.6540328,3.66631389 63.6775863,3.76944857 L63.6825417,3.80116949 L63.6937599,3.93173773 L63.7032943,4.08276156 L63.7074275,4.16671947 L63.7376138,5.14418292 L63.7875652,5.05029515 C63.9955477,4.67023227 64.2459842,4.35647949 64.5394255,4.11010607 L64.6287486,4.03821649 L64.7063475,3.98054926 C65.2662083,3.57973983 66.1372337,3.32381473 66.8897311,3.30137693 L66.996378,3.29976944 L67.1747075,3.29976944 Z M72.0983641,-1.74971149e-13 C72.2148563,-1.74971149e-13 72.3111299,0.0865659438 72.3263665,0.198879396 L72.3284671,0.230103011 L72.3284671,13.1393211 C72.3284671,13.2558132 72.2419011,13.3520869 72.1295877,13.3673235 L72.0983641,13.3694241 L71.6624475,13.3694241 C71.5459553,13.3694241 71.4496817,13.2828581 71.434445,13.1705447 L71.4323445,13.1393211 L71.4323445,0.230103011 C71.4323445,0.113610826 71.5189104,0.0173372001 71.6312239,0.00210056928 L71.6624475,-1.74971149e-13 L72.0983641,-1.74971149e-13 Z M8.41518068,0.123427528 C8.53167287,0.123427528 8.6279465,0.209993472 8.64318313,0.322306924 L8.6452837,0.35353054 L8.6452837,0.713201247 C8.6452837,0.829693433 8.55871775,0.925967058 8.4464043,0.941203689 L8.41518068,0.943304259 L0.856290007,0.943115543 L0.856290007,6.07594672 L7.92893845,6.07597774 C8.03484043,6.07597774 8.12403287,6.14751984 8.15082196,6.24491025 L8.15694089,6.27485713 L8.15904146,6.30608075 L8.15904146,6.66575146 C8.15904146,6.78224364 8.07247551,6.87851727 7.96016206,6.8937539 L7.92893845,6.89585447 L0.856290007,6.89572705 L0.856403402,13.0858736 C0.856403402,13.1917756 0.7848613,13.280968 0.687470886,13.3077571 L0.657524006,13.313876 L0.626300391,13.3159766 L0.230103011,13.3159766 C0.113610826,13.3159766 0.0173372001,13.2294107 0.00210056928,13.1170972 L2.39808173e-14,13.0858736 L2.39808173e-14,0.35353054 C2.39808173e-14,0.237038354 0.0865659438,0.140764728 0.198879396,0.125528097 L0.230103011,0.123427528 L8.41518068,0.123427528 Z M37.0038607,3.59079317 C37.0807821,3.59079317 37.1518219,3.62914242 37.194238,3.69164238 L37.2105976,3.7198653 L41.2614584,12.0092296 L45.1708347,3.72272005 C45.1993315,3.66231418 45.252051,3.61830824 45.3141993,3.60008064 L45.3459906,3.59315845 L45.3789425,3.59079317 L45.8544878,3.59079317 C46.0128079,3.59079317 46.1205651,3.74535441 46.0739081,3.89045639 L46.0624871,3.91930207 L41.7502967,13.0339218 C41.717007,13.1042859 41.6508363,13.1523434 41.5752163,13.1632584 L41.5422975,13.1656189 L40.9676802,13.1656189 C40.8906629,13.1656189 40.8195499,13.1271751 40.7771548,13.0645515 L40.7608101,13.036274 L36.3214453,3.92165425 C36.2516537,3.77836278 36.3451181,3.61294694 36.4971574,3.5928297 L36.5283153,3.59079317 L37.0038607,3.59079317 Z M53.7762579,4.42747261 C53.0805364,4.42747261 52.4915338,4.56093301 52.0062646,4.82542114 C51.5114816,5.09509463 51.1094089,5.42547317 50.7981765,5.8167772 C50.4832984,6.21266476 50.2533136,6.62534215 50.1071426,7.0553482 C49.9998092,7.37110162 49.9320193,7.6561084 49.903201,7.90747617 L49.8989119,7.94990564 L57.611658,7.94990564 L57.6091066,7.90663359 C57.5765435,7.494951 57.4933977,7.11308423 57.3599503,6.76045221 L57.3136052,6.64399017 C57.1208536,6.182653 56.8595486,5.78863936 56.5292524,5.4602447 C56.2000295,5.13291703 55.8044841,4.879395 55.340654,4.69915731 C54.8752924,4.51832449 54.3542492,4.42747261 53.7762579,4.42747261 Z M16.8606192,4.42747261 C16.1648976,4.42747261 15.5758951,4.56093301 15.0906259,4.82542114 C14.5958429,5.09509463 14.1937702,5.42547317 13.8825377,5.8167772 C13.5676597,6.21266476 13.3376749,6.62534215 13.1915038,7.0553482 C13.0841704,7.37110162 13.0163805,7.6561084 12.9875622,7.90747617 L12.9833323,7.94990564 L20.6960785,7.94990564 L20.6934679,7.90663359 C20.6609047,7.494951 20.577759,7.11308423 20.4443116,6.76045221 L20.3979665,6.64399017 C20.2052149,6.182653 19.9439098,5.78863936 19.6136137,5.4602447 C19.2843908,5.13291703 18.8888453,4.879395 18.4250153,4.69915731 C17.9596537,4.51832449 17.4386104,4.42747261 16.8606192,4.42747261 Z" id="Combined-Shape"></path>
                </g>
            </g>
        </g>
    </g>
</svg>