<?xml version="1.0" encoding="UTF-8"?>
<svg width="120px" height="25px" viewBox="0 0 120 25" version="1.1" xmlns="http://www.w3.org/2000/svg" xmlns:xlink="http://www.w3.org/1999/xlink">
    <title>logo dark</title>
    <g id="Page-1" stroke="none" stroke-width="1" fill="none" fill-rule="evenodd">
        <g id="Login" transform="translate(-128.000000, -293.000000)" fill="#000000" fill-rule="nonzero">
            <g id="Group-3" transform="translate(15.000000, 262.000000)">
                <g id="logo-dark" transform="translate(113.000000, 31.000000)">
                    <path d="M35.8373535,5.06935506 C35.9431068,5.06935506 36.04121,5.1207266 36.1016398,5.20529975 L36.1251443,5.24352517 L42.0006756,16.4656301 L47.091884,5.259838 C47.1314097,5.17283773 47.2063429,5.10919121 47.2950906,5.08280547 L47.3405156,5.07278205 L47.3876432,5.06935506 L48.0590014,5.06935506 C48.2786926,5.06935506 48.4306285,5.28078876 48.3712802,5.48407806 L48.3565509,5.52456227 L41.1790932,21.9064791 C40.8632126,22.7554082 40.4383136,23.4202502 39.9013067,23.8964638 C39.3446729,24.3900825 38.6289077,24.6356369 37.7696038,24.6356369 C37.5823505,24.6356369 37.3691037,24.6153277 37.1287602,24.5752705 C36.8857123,24.5347625 36.6794628,24.4832001 36.5086374,24.4191406 C36.3616025,24.3640025 36.2771715,24.2130229 36.3021162,24.0622722 L36.3129277,24.0171499 L36.4807673,23.485658 C36.5354007,23.3126521 36.7211498,23.2179276 36.8932668,23.2752999 C36.989312,23.307315 37.1300796,23.3414405 37.3128822,23.37626 C37.488984,23.4098032 37.6598102,23.4264692 37.8255504,23.4264692 C38.1675864,23.4264692 38.4570031,23.3630354 38.6975835,23.2388648 C38.9510965,23.1080194 39.1659198,22.9418354 39.3439953,22.7394768 C39.5285173,22.5297927 39.6842166,22.2899317 39.8112313,22.0189669 C39.9134112,21.8009831 40.0078786,21.5831156 40.0942947,21.3662997 L40.1780146,21.149869 L41.3592026,17.927461 L34.8781808,5.54484238 C34.7791284,5.35558671 34.8868672,5.13348348 35.0788945,5.0809148 L35.1212887,5.07231875 L35.1659953,5.06935506 L35.8373535,5.06935506 Z M107.453141,5.06935506 C107.558895,5.06935506 107.656998,5.1207266 107.717428,5.20529975 L107.740932,5.24352517 L113.616529,16.4656301 L118.707672,5.259838 C118.747197,5.17283773 118.822131,5.10919121 118.910878,5.08280547 L118.956303,5.07278205 L119.003431,5.06935506 L119.674789,5.06935506 C119.89448,5.06935506 120.046416,5.28078876 119.987068,5.48407806 L119.972339,5.52456227 L112.794881,21.9064791 C112.479,22.7554082 112.054101,23.4202502 111.517094,23.8964638 C110.960461,24.3900825 110.244695,24.6356369 109.385392,24.6356369 C109.198138,24.6356369 108.984891,24.6153277 108.744548,24.5752705 C108.5015,24.5347625 108.295251,24.4832001 108.124425,24.4191406 C107.97739,24.3640025 107.892959,24.2130229 107.917904,24.0622722 L107.928715,24.0171499 L108.096555,23.485658 C108.151188,23.3126521 108.336938,23.2179276 108.509055,23.2752999 C108.6051,23.307315 108.745867,23.3414405 108.92867,23.37626 C109.104772,23.4098032 109.275598,23.4264692 109.441338,23.4264692 C109.783374,23.4264692 110.072791,23.3630354 110.313371,23.2388648 C110.566884,23.1080194 110.781708,22.9418354 110.959783,22.7394768 C111.144305,22.5297927 111.300004,22.2899317 111.427019,22.0189669 C111.529199,21.8009831 111.623666,21.5831156 111.710082,21.3662997 L111.793802,21.149869 L112.975056,17.927461 L106.493969,5.54484238 C106.394916,5.35558671 106.502655,5.13348348 106.694682,5.0809148 L106.737076,5.07231875 L106.781783,5.06935506 L107.453141,5.06935506 Z M75.9492463,5.06935506 C77.066273,5.06935506 78.0454852,5.25500265 78.8848447,5.62896544 C79.720026,6.00106668 80.4180292,6.49332439 80.9759897,7.10554232 C81.5322483,7.71589285 81.9475194,8.41109392 82.2204438,9.18892054 C82.4663836,9.88984208 82.6007183,10.6039406 82.6231102,11.3301109 L82.6264691,11.548323 L82.6264691,12.0798149 C82.6264691,12.2442745 82.5042584,12.3801902 82.3456982,12.4017007 L82.3016178,12.4046662 L70.4069736,12.4045556 L70.4131617,12.5281143 C70.4416893,12.975368 70.5130231,13.4195138 70.6272512,13.8608144 L70.6879403,14.0812289 L70.7557808,14.3011765 C70.9915294,15.0264631 71.3490603,15.6751038 71.8292951,16.2491985 C72.3059147,16.8189714 72.9099697,17.2801433 73.6445454,17.63348 C74.373507,17.9841162 75.2401994,18.1608395 76.2474797,18.1608395 C77.2741631,18.1608395 78.1805269,17.9704441 78.9699117,17.5914219 C79.7607003,17.2117256 80.4482605,16.6595787 81.0347128,15.9320643 C81.13771,15.8042928 81.3174514,15.7751437 81.454124,15.8569469 L81.4937139,15.8848288 L81.9708873,16.2764544 C82.1097529,16.3904241 82.1297503,16.595465 82.0155228,16.7341186 C81.3096371,17.5909491 80.4814726,18.245602 79.5330149,18.6953001 C78.5827413,19.1458593 77.4865845,19.3700073 76.2474797,19.3700073 C75.1921049,19.3700073 74.2254896,19.1896519 73.3498661,18.8278868 C72.4749978,18.4664338 71.7176743,17.9618453 71.0803258,17.3150336 C70.4419204,16.6671494 69.9504342,15.8922821 69.6065985,14.9931747 C69.2640243,14.0973659 69.0930834,13.1256286 69.0930834,12.0798149 C69.0930834,11.0685479 69.2700146,10.1313884 69.6245647,9.27065605 C69.9782996,8.4119028 70.4636574,7.6678402 71.0800337,7.04070585 C71.6975986,6.41236205 72.4254243,5.9261401 73.261113,5.58320705 C74.0961814,5.24052858 74.9930115,5.06935506 75.9492463,5.06935506 Z M23.8330504,5.06935506 C24.9500771,5.06935506 25.9292893,5.25500265 26.7686489,5.62896544 C27.6038301,6.00106668 28.3018333,6.49332439 28.8597939,7.10554232 C29.4160525,7.71589285 29.8313235,8.41109392 30.1042479,9.18892054 C30.3501878,9.88984208 30.4845224,10.6039406 30.5069143,11.3301109 L30.5102733,11.548323 L30.5102733,12.0798149 C30.5102733,12.2442745 30.3880625,12.3801902 30.2295024,12.4017007 L30.185422,12.4046662 L18.2908613,12.4045556 L18.2969658,12.5281143 C18.3254934,12.975368 18.3968272,13.4195138 18.5110554,13.8608144 L18.5717444,14.0812289 L18.6395849,14.3011765 C18.8753335,15.0264631 19.2328645,15.6751038 19.7130993,16.2491985 C20.1897188,16.8189714 20.7937739,17.2801433 21.5283495,17.63348 C22.2573111,17.9841162 23.1240035,18.1608395 24.1312838,18.1608395 C25.1579672,18.1608395 26.0643311,17.9704441 26.8537158,17.5914219 C27.6445045,17.2117256 28.3320646,16.6595787 28.9185169,15.9320643 C29.0215141,15.8042928 29.2012556,15.7751437 29.3379281,15.8569469 L29.377518,15.8848288 L29.8546915,16.2764544 C29.993557,16.3904241 30.0135545,16.595465 29.899327,16.7341186 C29.1934412,17.5909491 28.3652767,18.245602 27.416819,18.6953001 C26.4665454,19.1458593 25.3703887,19.3700073 24.1312838,19.3700073 C23.075909,19.3700073 22.1092937,19.1896519 21.2336702,18.8278868 C20.358802,18.4664338 19.6014785,17.9618453 18.96413,17.3150336 C18.3257246,16.6671494 17.8342384,15.8922821 17.4904027,14.9931747 C17.1478285,14.0973659 16.9768875,13.1256286 16.9768875,12.0798149 C16.9768875,11.0685479 17.1538187,10.1313884 17.5083688,9.27065605 C17.8621037,8.4119028 18.3474616,7.6678402 18.9638378,7.04070585 C19.5814027,6.41236205 20.3092285,5.9261401 21.1449172,5.58320705 C21.9799855,5.24052858 22.8768157,5.06935506 23.8330504,5.06935506 Z M94.8348812,4.65849804 C94.9323107,4.65849804 95.0372286,4.67015558 95.1503491,4.69277969 C95.2870081,4.72011149 95.3892065,4.83083694 95.4082796,4.9655947 L95.4114918,5.01132261 L95.4114918,5.5428145 C95.4114918,5.75415339 95.2128814,5.90922377 95.0078525,5.85796656 C94.9746535,5.8496668 94.9441726,5.8443116 94.9164207,5.84166367 L94.8768411,5.83969255 L94.7229882,5.83969255 C93.8841016,5.83969255 92.8915403,6.05258709 92.4115364,6.35452506 C91.874446,6.69237221 91.4334259,7.13339234 91.0861764,7.68031025 C90.7323324,8.23761466 90.4709869,8.85775645 90.3021132,9.54213921 C90.1501597,10.1579507 90.0658481,10.7693466 90.0489881,11.3767005 L90.045827,11.6042695 L90.045827,18.6535304 C90.045827,18.81799 89.9236163,18.9539057 89.7650561,18.9754162 L89.7209757,18.9783817 L89.1055641,18.9783817 C88.9411045,18.9783817 88.8051888,18.856171 88.7836783,18.6976108 L88.7807128,18.6535304 L88.7807128,8.63910423 C88.7807128,8.50484246 88.7786675,8.34964642 88.7745689,8.17357449 L88.7390345,6.98821914 L88.714697,6.40084722 L88.6562624,5.57325423 L88.6422758,5.4246461 C88.6257175,5.24871493 88.7521912,5.09484657 88.922315,5.07221553 L88.9656978,5.06935506 L89.5811095,5.06935506 C89.7343962,5.06935506 89.8645169,5.17597255 89.897769,5.32157445 L89.9047648,5.36635692 L89.9206022,5.55068857 L89.9340626,5.76389867 L89.9398976,5.88242749 L89.9825136,7.26237589 L90.0530332,7.12982845 C90.3466556,6.59326908 90.700213,6.15032399 91.1144831,5.80250268 L91.2405863,5.70101151 L91.3501377,5.61959895 C92.1405294,5.05375035 93.3702123,4.69244432 94.4325615,4.66076743 L94.5831219,4.65849804 L94.8348812,4.65849804 Z M101.785926,-3.58824082e-13 C101.950385,-3.58824082e-13 102.086301,0.122210744 102.107812,0.280770912 L102.110777,0.32485131 L102.110777,18.5496297 C102.110777,18.7140893 101.988566,18.850005 101.830006,18.8715155 L101.785926,18.874481 L101.170514,18.874481 C101.006055,18.874481 100.870139,18.7522703 100.848628,18.5937101 L100.845663,18.5496297 L100.845663,0.32485131 C100.845663,0.160391754 100.967874,0.0244760472 101.126434,0.00296550957 L101.170514,-3.58824082e-13 L101.785926,-3.58824082e-13 Z M11.8802551,0.174250628 C12.0447146,0.174250628 12.1806303,0.296461372 12.2021409,0.45502154 L12.2051064,0.499101938 L12.2051064,1.00687235 C12.2051064,1.1713319 12.0828956,1.30724761 11.9243355,1.32875815 L11.8802551,1.33172366 L1.20888001,1.33145724 L1.20888001,8.57780713 L11.1937955,8.57785092 C11.3433041,8.57785092 11.4692229,8.67885154 11.5070428,8.81634389 L11.5156813,8.85862184 L11.5186468,8.90270223 L11.5186468,9.41047264 C11.5186468,9.5749322 11.396436,9.71084791 11.2378759,9.73235844 L11.1937955,9.73532395 L1.20888001,9.73514407 L1.2090401,18.4741745 C1.2090401,18.6236832 1.10803948,18.7496019 0.970547133,18.7874218 L0.928269185,18.7960603 L0.884188787,18.7990258 L0.32485131,18.7990258 C0.160391754,18.7990258 0.0244760472,18.676815 0.00296550957,18.5182549 L3.37507799e-14,18.4741745 L3.37507799e-14,0.499101938 C3.37507799e-14,0.334642382 0.122210744,0.198726675 0.280770912,0.177216137 L0.32485131,0.174250628 L11.8802551,0.174250628 Z M52.2407445,5.06935506 C52.3493395,5.06935506 52.449631,5.12349518 52.5095125,5.21173042 L52.5326084,5.25157454 L58.2514707,16.9542065 L63.7705902,5.25560477 C63.810821,5.1703259 63.8852485,5.10819987 63.9729872,5.08246679 L64.0178691,5.07269429 L64.0643894,5.06935506 L64.7357475,5.06935506 C64.9592582,5.06935506 65.1113861,5.28755917 65.0455173,5.49240903 L65.0293935,5.53313233 L58.9415954,18.4008307 C58.8945981,18.5001683 58.8011806,18.5680142 58.694423,18.5834236 L58.6479494,18.5867561 L57.8367249,18.5867561 C57.7279946,18.5867561 57.6275999,18.5324825 57.5677479,18.4440727 L57.5446731,18.4041515 L51.2773345,5.53645306 C51.1788053,5.33415922 51.3107549,5.10063098 51.5253987,5.07223016 L51.5693863,5.06935506 L52.2407445,5.06935506 Z M75.9194229,6.25054957 C74.9372278,6.25054957 74.1056948,6.43896425 73.4206089,6.81235925 C72.7220917,7.19307477 72.1544597,7.65949154 71.7150727,8.21192076 C71.2705389,8.77082084 70.9458546,9.35342421 70.7394954,9.96049158 C70.5879659,10.4062611 70.4922625,10.8086236 70.4515778,11.1634958 L70.4455226,11.2233962 L81.3341054,11.2233962 L81.3305035,11.1623062 C81.2845319,10.5811073 81.1671497,10.0420013 80.9787534,9.54416782 L80.913325,9.37975083 C80.6412052,8.7284513 80.2723038,8.17219674 79.8060034,7.70858075 C79.3412181,7.24647111 78.7828011,6.88855765 78.1279821,6.63410444 C77.4710011,6.37881105 76.7354106,6.25054957 75.9194229,6.25054957 Z M23.8032271,6.25054957 C22.821032,6.25054957 21.9894989,6.43896425 21.304413,6.81235925 C20.6058958,7.19307477 20.0382638,7.65949154 19.5988768,8.21192076 C19.1543431,8.77082084 18.8296587,9.35342421 18.6232995,9.96049158 C18.47177,10.4062611 18.3760666,10.8086236 18.335382,11.1634958 L18.3294103,11.2233962 L29.2179931,11.2233962 L29.2143076,11.1623062 C29.1683361,10.5811073 29.0509539,10.0420013 28.8625576,9.54416782 L28.7971292,9.37975083 C28.5250093,8.7284513 28.156108,8.17219674 27.6898076,7.70858075 C27.2250222,7.24647111 26.6666052,6.88855765 26.0117863,6.63410444 C25.3548052,6.37881105 24.6192147,6.25054957 23.8032271,6.25054957 Z" id="Combined-Shape"></path>
                </g>
            </g>
        </g>
    </g>
</svg>